<svg xmlns="http://www.w3.org/2000/svg" xmlns:xlink="http://www.w3.org/1999/xlink" width="500" zoomAndPan="magnify" viewBox="0 0 375 374.999991" height="500" preserveAspectRatio="xMidYMid meet" version="1.0"><defs><clipPath id="fa2f3e3563"><path d="M 75 231 L 309 231 L 309 368.761719 L 75 368.761719 Z M 75 231 " clip-rule="nonzero"/></clipPath><clipPath id="05a8284fc7"><path d="M 46.601562 179 L 111 179 L 111 193 L 46.601562 193 Z M 46.601562 179 " clip-rule="nonzero"/></clipPath><clipPath id="3722b6c0f2"><path d="M 46.601562 211 L 111 211 L 111 224 L 46.601562 224 Z M 46.601562 211 " clip-rule="nonzero"/></clipPath><clipPath id="d6c5251947"><path d="M 273 179 L 337.601562 179 L 337.601562 193 L 273 193 Z M 273 179 " clip-rule="nonzero"/></clipPath><clipPath id="c180015d4b"><path d="M 275 195 L 337.601562 195 L 337.601562 209 L 275 209 Z M 275 195 " clip-rule="nonzero"/></clipPath><clipPath id="c5df476145"><path d="M 273 211 L 337.601562 211 L 337.601562 224 L 273 224 Z M 273 211 " clip-rule="nonzero"/></clipPath><clipPath id="27ae9aa929"><path d="M 232 6.511719 L 258 6.511719 L 258 47 L 232 47 Z M 232 6.511719 " clip-rule="nonzero"/></clipPath></defs><g clip-path="url(#fa2f3e3563)"><path fill="#004aad" d="M 192.3125 368.542969 C 128.132812 368.542969 75.914062 316.324219 75.914062 252.144531 L 75.914062 234.304688 C 75.914062 232.578125 77.3125 231.175781 79.042969 231.175781 C 80.769531 231.175781 82.167969 232.578125 82.167969 234.304688 L 82.167969 252.144531 C 82.167969 312.878906 131.578125 362.289062 192.3125 362.289062 C 253.046875 362.289062 302.457031 312.878906 302.457031 252.144531 L 302.457031 234.71875 C 302.457031 232.992188 303.855469 231.59375 305.585938 231.59375 C 307.3125 231.59375 308.710938 232.992188 308.710938 234.71875 L 308.710938 252.144531 C 308.710938 316.324219 256.492188 368.542969 192.3125 368.542969 Z M 192.3125 368.542969 " fill-opacity="1" fill-rule="nonzero"/></g><path fill="#004aad" d="M 305.585938 169.410156 C 303.855469 169.410156 302.457031 168.011719 302.457031 166.285156 L 302.457031 148.445312 C 302.457031 119.257812 291.933594 92.96875 272.019531 72.425781 C 270.816406 71.183594 270.847656 69.207031 272.089844 68.003906 C 273.332031 66.800781 275.3125 66.832031 276.515625 68.074219 C 297.277344 89.492188 308.71875 118.039062 308.71875 148.445312 L 308.71875 166.285156 C 308.710938 168.011719 307.3125 169.410156 305.585938 169.410156 Z M 305.585938 169.410156 " fill-opacity="1" fill-rule="nonzero"/><path fill="#004aad" d="M 79.035156 168.996094 C 77.304688 168.996094 75.90625 167.597656 75.90625 165.871094 L 75.90625 148.445312 C 75.90625 84.265625 128.125 32.046875 192.304688 32.046875 C 207.613281 32.046875 222.5 34.976562 236.542969 40.753906 C 238.136719 41.410156 238.902344 43.238281 238.246094 44.832031 C 237.589844 46.425781 235.761719 47.191406 234.167969 46.535156 C 220.882812 41.074219 206.800781 38.300781 192.304688 38.300781 C 131.570312 38.300781 82.160156 87.710938 82.160156 148.445312 L 82.160156 165.871094 C 82.160156 167.597656 80.761719 168.996094 79.035156 168.996094 Z M 79.035156 168.996094 " fill-opacity="1" fill-rule="nonzero"/><path fill="#004aad" d="M 192.304688 301.757812 C 151.144531 301.757812 117.667969 268.273438 117.667969 227.121094 L 117.667969 206.117188 L 266.949219 206.117188 L 266.949219 227.121094 C 266.949219 268.28125 233.464844 301.757812 192.304688 301.757812 Z M 123.921875 212.367188 L 123.921875 227.121094 C 123.921875 264.828125 154.601562 295.507812 192.304688 295.507812 C 230.011719 295.507812 260.691406 264.828125 260.691406 227.121094 L 260.691406 212.367188 Z M 123.921875 212.367188 " fill-opacity="1" fill-rule="nonzero"/><path fill="#004aad" d="M 263.824219 225.949219 L 120.792969 225.949219 C 119.066406 225.949219 117.667969 224.550781 117.667969 222.824219 C 117.667969 221.097656 119.066406 219.699219 120.792969 219.699219 L 263.824219 219.699219 C 265.550781 219.699219 266.949219 221.097656 266.949219 222.824219 C 266.949219 224.550781 265.550781 225.949219 263.824219 225.949219 Z M 263.824219 225.949219 " fill-opacity="1" fill-rule="nonzero"/><path fill="#004aad" d="M 120.792969 212.367188 C 119.066406 212.367188 117.667969 210.96875 117.667969 209.242188 C 117.667969 183 139.019531 161.652344 165.257812 161.652344 C 175.386719 161.652344 185.054688 164.792969 193.21875 170.730469 C 194.617188 171.75 194.921875 173.703125 193.90625 175.101562 C 192.890625 176.5 190.9375 176.804688 189.539062 175.789062 C 182.449219 170.628906 174.050781 167.902344 165.25 167.902344 C 142.457031 167.902344 123.914062 186.449219 123.914062 209.242188 C 123.921875 210.96875 122.519531 212.367188 120.792969 212.367188 Z M 120.792969 212.367188 " fill-opacity="1" fill-rule="nonzero"/><path fill="#004aad" d="M 136.4375 212.367188 C 134.710938 212.367188 133.3125 210.96875 133.3125 209.242188 C 133.3125 191.628906 147.644531 177.296875 165.257812 177.296875 C 171.566406 177.296875 177.660156 179.132812 182.894531 182.601562 C 184.335938 183.554688 184.726562 185.492188 183.773438 186.933594 C 182.816406 188.371094 180.878906 188.761719 179.441406 187.808594 C 175.238281 185.015625 170.332031 183.539062 165.257812 183.539062 C 151.089844 183.539062 139.566406 195.066406 139.566406 209.234375 C 139.566406 210.96875 138.167969 212.367188 136.4375 212.367188 Z M 136.4375 212.367188 " fill-opacity="1" fill-rule="nonzero"/><path fill="#004aad" d="M 152.785156 212.15625 C 151.058594 212.15625 149.660156 210.757812 149.660156 209.03125 C 149.660156 199.480469 157.429688 191.714844 166.976562 191.714844 C 171.136719 191.714844 175.160156 193.214844 178.300781 195.933594 C 179.605469 197.066406 179.746094 199.035156 178.621094 200.339844 C 177.488281 201.648438 175.519531 201.789062 174.214844 200.660156 C 172.207031 198.925781 169.636719 197.964844 166.976562 197.964844 C 160.875 197.964844 155.914062 202.929688 155.914062 209.03125 C 155.914062 210.75 154.515625 212.15625 152.785156 212.15625 Z M 152.785156 212.15625 " fill-opacity="1" fill-rule="nonzero"/><path fill="#004aad" d="M 263.824219 212.367188 C 262.097656 212.367188 260.699219 210.96875 260.699219 209.242188 C 260.699219 186.449219 242.152344 167.902344 219.359375 167.902344 C 196.5625 167.902344 178.019531 186.449219 178.019531 209.242188 C 178.019531 210.96875 176.621094 212.367188 174.894531 212.367188 C 173.167969 212.367188 171.769531 210.96875 171.769531 209.242188 C 171.769531 183 193.117188 161.652344 219.359375 161.652344 C 245.601562 161.652344 266.949219 183 266.949219 209.242188 C 266.949219 210.96875 265.542969 212.367188 263.824219 212.367188 Z M 263.824219 212.367188 " fill-opacity="1" fill-rule="nonzero"/><path fill="#004aad" d="M 248.179688 212.367188 C 246.453125 212.367188 245.054688 210.96875 245.054688 209.242188 C 245.054688 195.074219 233.527344 183.546875 219.359375 183.546875 C 205.191406 183.546875 193.664062 195.074219 193.664062 209.242188 C 193.664062 210.96875 192.265625 212.367188 190.539062 212.367188 C 188.8125 212.367188 187.414062 210.96875 187.414062 209.242188 C 187.414062 191.628906 201.746094 177.296875 219.359375 177.296875 C 236.972656 177.296875 251.304688 191.628906 251.304688 209.242188 C 251.304688 210.96875 249.90625 212.367188 248.179688 212.367188 Z M 248.179688 212.367188 " fill-opacity="1" fill-rule="nonzero"/><path fill="#004aad" d="M 233.550781 212.15625 C 231.824219 212.15625 230.425781 210.757812 230.425781 209.03125 C 230.425781 202.929688 225.460938 197.964844 219.359375 197.964844 C 213.253906 197.964844 208.292969 202.929688 208.292969 209.03125 C 208.292969 210.757812 206.894531 212.15625 205.167969 212.15625 C 203.441406 212.15625 202.042969 210.757812 202.042969 209.03125 C 202.042969 199.480469 209.808594 191.714844 219.359375 191.714844 C 228.910156 191.714844 236.675781 199.480469 236.675781 209.03125 C 236.675781 210.75 235.277344 212.15625 233.550781 212.15625 Z M 233.550781 212.15625 " fill-opacity="1" fill-rule="nonzero"/><path fill="#004aad" d="M 236.769531 168.933594 C 235.042969 168.933594 233.644531 167.535156 233.644531 165.808594 C 233.644531 143.015625 215.101562 124.46875 192.304688 124.46875 C 169.511719 124.46875 150.964844 143.015625 150.964844 165.808594 C 150.964844 167.535156 149.566406 168.933594 147.839844 168.933594 C 146.113281 168.933594 144.714844 167.535156 144.714844 165.808594 C 144.714844 139.566406 166.0625 118.21875 192.304688 118.21875 C 218.546875 118.21875 239.894531 139.566406 239.894531 165.808594 C 239.894531 167.535156 238.496094 168.933594 236.769531 168.933594 Z M 236.769531 168.933594 " fill-opacity="1" fill-rule="nonzero"/><path fill="#004aad" d="M 221.078125 167.222656 C 219.4375 167.222656 218.0625 165.941406 217.960938 164.277344 C 217.164062 150.726562 205.902344 140.113281 192.3125 140.113281 C 178.730469 140.113281 167.460938 150.726562 166.664062 164.269531 C 166.5625 165.996094 165.078125 167.308594 163.359375 167.207031 C 161.632812 167.105469 160.320312 165.628906 160.421875 163.902344 C 161.414062 147.054688 175.417969 133.863281 192.3125 133.863281 C 209.207031 133.863281 223.210938 147.0625 224.203125 163.910156 C 224.304688 165.636719 222.992188 167.113281 221.265625 167.214844 C 221.195312 167.214844 221.132812 167.222656 221.078125 167.222656 Z M 221.078125 167.222656 " fill-opacity="1" fill-rule="nonzero"/><path fill="#004aad" d="M 206.496094 168.714844 C 204.769531 168.714844 203.371094 167.316406 203.371094 165.589844 C 203.371094 159.488281 198.40625 154.523438 192.304688 154.523438 C 186.203125 154.523438 181.238281 159.488281 181.238281 165.589844 C 181.238281 167.316406 179.839844 168.714844 178.113281 168.714844 C 176.386719 168.714844 174.988281 167.316406 174.988281 165.589844 C 174.988281 156.042969 182.753906 148.273438 192.304688 148.273438 C 201.855469 148.273438 209.621094 156.042969 209.621094 165.589844 C 209.621094 167.316406 208.222656 168.714844 206.496094 168.714844 Z M 206.496094 168.714844 " fill-opacity="1" fill-rule="nonzero"/><path fill="#004aad" d="M 226.867188 319.582031 L 157.03125 319.582031 L 157.03125 291.011719 C 157.03125 289.285156 158.429688 287.886719 160.15625 287.886719 C 161.882812 287.886719 163.28125 289.285156 163.28125 291.011719 L 163.28125 313.332031 L 220.617188 313.332031 L 220.617188 293.015625 C 220.617188 291.285156 222.015625 289.886719 223.742188 289.886719 C 225.46875 289.886719 226.867188 291.285156 226.867188 293.015625 Z M 226.867188 319.582031 " fill-opacity="1" fill-rule="nonzero"/><g clip-path="url(#05a8284fc7)"><path fill="#004aad" d="M 107.171875 192.542969 C 99.328125 192.542969 95.195312 190.683594 91.542969 189.042969 C 88.019531 187.457031 84.980469 186.09375 78.480469 186.09375 C 71.976562 186.09375 68.929688 187.464844 65.414062 189.042969 C 61.761719 190.683594 57.628906 192.542969 49.785156 192.542969 C 48.058594 192.542969 46.65625 191.144531 46.65625 189.417969 C 46.65625 187.691406 48.058594 186.292969 49.785156 186.292969 C 56.285156 186.292969 59.324219 184.921875 62.851562 183.34375 C 66.5 181.703125 70.632812 179.84375 78.480469 179.84375 C 86.324219 179.84375 90.457031 181.703125 94.109375 183.34375 C 97.632812 184.929688 100.671875 186.292969 107.171875 186.292969 C 108.902344 186.292969 110.300781 187.691406 110.300781 189.417969 C 110.300781 191.144531 108.894531 192.542969 107.171875 192.542969 Z M 107.171875 192.542969 " fill-opacity="1" fill-rule="nonzero"/></g><path fill="#004aad" d="M 107.171875 208.25 C 99.523438 208.25 95.5 206.382812 91.941406 204.734375 C 88.542969 203.15625 85.605469 201.796875 79.339844 201.796875 C 73.070312 201.796875 70.132812 203.15625 66.734375 204.726562 C 63.179688 206.375 59.144531 208.242188 51.503906 208.242188 C 49.777344 208.242188 48.378906 206.84375 48.378906 205.117188 C 48.378906 203.390625 49.777344 201.992188 51.503906 201.992188 C 57.769531 201.992188 60.707031 200.628906 64.109375 199.050781 C 67.664062 197.402344 71.695312 195.535156 79.339844 195.535156 C 86.988281 195.535156 91.011719 197.402344 94.570312 199.050781 C 97.96875 200.621094 100.90625 201.984375 107.171875 201.984375 C 108.902344 201.984375 110.300781 203.382812 110.300781 205.109375 C 110.300781 206.835938 108.894531 208.25 107.171875 208.25 Z M 107.171875 208.25 " fill-opacity="1" fill-rule="nonzero"/><g clip-path="url(#3722b6c0f2)"><path fill="#004aad" d="M 107.171875 223.964844 C 99.328125 223.964844 95.195312 222.105469 91.542969 220.464844 C 88.019531 218.878906 84.980469 217.519531 78.480469 217.519531 C 71.976562 217.519531 68.929688 218.878906 65.414062 220.464844 C 61.761719 222.105469 57.628906 223.964844 49.785156 223.964844 C 48.058594 223.964844 46.65625 222.566406 46.65625 220.839844 C 46.65625 219.113281 48.058594 217.714844 49.785156 217.714844 C 56.285156 217.714844 59.324219 216.347656 62.851562 214.765625 C 66.5 213.125 70.632812 211.265625 78.480469 211.265625 C 86.324219 211.265625 90.457031 213.125 94.109375 214.765625 C 97.632812 216.355469 100.671875 217.714844 107.171875 217.714844 C 108.902344 217.714844 110.300781 219.113281 110.300781 220.839844 C 110.300781 222.566406 108.894531 223.964844 107.171875 223.964844 Z M 107.171875 223.964844 " fill-opacity="1" fill-rule="nonzero"/></g><g clip-path="url(#d6c5251947)"><path fill="#004aad" d="M 334.28125 192.542969 C 326.433594 192.542969 322.300781 190.683594 318.648438 189.042969 C 315.125 187.457031 312.085938 186.09375 305.585938 186.09375 C 299.082031 186.09375 296.042969 187.464844 292.519531 189.042969 C 288.867188 190.683594 284.734375 192.542969 276.890625 192.542969 C 275.164062 192.542969 273.761719 191.144531 273.761719 189.417969 C 273.761719 187.691406 275.164062 186.292969 276.890625 186.292969 C 283.390625 186.292969 286.429688 184.921875 289.957031 183.34375 C 293.605469 181.703125 297.738281 179.84375 305.585938 179.84375 C 313.429688 179.84375 317.5625 181.703125 321.214844 183.34375 C 324.738281 184.929688 327.777344 186.292969 334.28125 186.292969 C 336.007812 186.292969 337.40625 187.691406 337.40625 189.417969 C 337.40625 191.144531 336.007812 192.542969 334.28125 192.542969 Z M 334.28125 192.542969 " fill-opacity="1" fill-rule="nonzero"/></g><g clip-path="url(#c180015d4b)"><path fill="#004aad" d="M 334.28125 208.25 C 326.628906 208.25 322.605469 206.382812 319.046875 204.734375 C 315.648438 203.15625 312.710938 201.796875 306.445312 201.796875 C 300.175781 201.796875 297.238281 203.15625 293.839844 204.734375 C 290.285156 206.382812 286.25 208.25 278.609375 208.25 C 276.882812 208.25 275.484375 206.851562 275.484375 205.125 C 275.484375 203.398438 276.882812 202 278.609375 202 C 284.875 202 287.8125 200.636719 291.214844 199.066406 C 294.769531 197.417969 298.800781 195.550781 306.445312 195.550781 C 314.09375 195.550781 318.117188 197.417969 321.675781 199.066406 C 325.074219 200.644531 328.011719 202.007812 334.28125 202.007812 C 336.007812 202.007812 337.40625 203.40625 337.40625 205.132812 C 337.40625 206.859375 336.007812 208.25 334.28125 208.25 Z M 334.28125 208.25 " fill-opacity="1" fill-rule="nonzero"/></g><g clip-path="url(#c5df476145)"><path fill="#004aad" d="M 334.28125 223.964844 C 326.433594 223.964844 322.300781 222.105469 318.648438 220.464844 C 315.125 218.878906 312.085938 217.519531 305.585938 217.519531 C 299.082031 217.519531 296.042969 218.886719 292.519531 220.464844 C 288.867188 222.105469 284.734375 223.964844 276.890625 223.964844 C 275.164062 223.964844 273.761719 222.566406 273.761719 220.839844 C 273.761719 219.113281 275.164062 217.714844 276.890625 217.714844 C 283.390625 217.714844 286.429688 216.347656 289.957031 214.765625 C 293.605469 213.125 297.738281 211.265625 305.585938 211.265625 C 313.429688 211.265625 317.5625 213.125 321.214844 214.765625 C 324.738281 216.355469 327.777344 217.714844 334.28125 217.714844 C 336.007812 217.714844 337.40625 219.113281 337.40625 220.839844 C 337.40625 222.566406 336.007812 223.964844 334.28125 223.964844 Z M 334.28125 223.964844 " fill-opacity="1" fill-rule="nonzero"/></g><g clip-path="url(#27ae9aa929)"><path fill="#004aad" d="M 235.355469 46.761719 C 234.824219 46.761719 234.285156 46.628906 233.800781 46.339844 C 232.308594 45.480469 231.792969 43.566406 232.652344 42.074219 L 251.992188 8.542969 C 252.851562 7.050781 254.765625 6.535156 256.257812 7.394531 C 257.75 8.253906 258.265625 10.167969 257.40625 11.660156 L 238.066406 45.191406 C 237.488281 46.199219 236.441406 46.761719 235.355469 46.761719 Z M 235.355469 46.761719 " fill-opacity="1" fill-rule="nonzero"/></g><path fill="#004aad" d="M 190.539062 124.476562 C 190.007812 124.476562 189.46875 124.34375 188.984375 124.054688 C 187.492188 123.195312 186.976562 121.28125 187.835938 119.789062 L 232.660156 42.074219 C 233.519531 40.582031 235.433594 40.066406 236.925781 40.925781 C 238.417969 41.785156 238.933594 43.699219 238.074219 45.191406 L 193.25 122.90625 C 192.671875 123.914062 191.617188 124.476562 190.539062 124.476562 Z M 190.539062 124.476562 " fill-opacity="1" fill-rule="nonzero"/><path fill="#004aad" d="M 218.640625 129.550781 C 217.84375 129.550781 217.054688 129.246094 216.445312 128.644531 C 215.21875 127.433594 215.210938 125.445312 216.421875 124.21875 L 306.78125 32.96875 C 308 31.742188 309.976562 31.734375 311.203125 32.945312 C 312.429688 34.15625 312.4375 36.144531 311.226562 37.371094 L 220.867188 128.621094 C 220.257812 129.238281 219.453125 129.550781 218.640625 129.550781 Z M 218.640625 129.550781 " fill-opacity="1" fill-rule="nonzero"/></svg>